<svg id="Capa_1" enable-background="new 0 0 512 512" height="512" viewBox="0 0 512 512" width="512" xmlns="http://www.w3.org/2000/svg"><g><g><g><g><path d="m86.404 57.018-7.584 97.509h354.36l-7.584-97.509c-2.503-32.181-29.347-57.018-61.625-57.018h-215.942c-32.278 0-59.122 24.837-61.625 57.018z" fill="#92dd7a"/></g></g></g><g><g><g><path d="m256 123.622c-11.379 0-20.604-9.225-20.604-20.604s9.225-20.604 20.604-20.604v-82.414h-107.971c-32.278 0-59.122 24.837-61.625 57.018l-7.584 97.509h177.18z" fill="#7ec66a"/></g></g></g><g><g><g><path d="m411.824 429.097 21.356-274.57h-354.36l21.356 274.57 155.824 41.451z" fill="#92dd7a"/></g></g></g><g><g><g><path d="m427.571 226.64 5.609-72.113h-354.36l21.356 274.57 57.931 15.41-16.945-217.867z" fill="#7ec66a"/></g></g></g><g><g><g><path d="m431.131 185.433h-350.262c-17.069 0-30.905-13.837-30.905-30.905 0-17.069 13.837-30.905 30.905-30.905h350.262c17.069 0 30.905 13.837 30.905 30.905 0 17.068-13.837 30.905-30.905 30.905z" fill="#b1ef97"/></g></g></g><g><g><g><path d="m189.17 154.527c0-17.069 13.837-30.905 30.905-30.905h-139.206c-17.069 0-30.905 13.837-30.905 30.905s13.837 30.905 30.905 30.905h139.206c-17.068.001-30.905-13.836-30.905-30.905z" fill="#92dd7a"/></g></g></g><g><g><g><path d="m356.875 53.906 4.193-53.906h-210.136l4.193 53.906c1.252 16.09 14.673 28.509 30.812 28.509h140.125c16.14-.001 29.561-12.419 30.813-28.509z" fill="#67b758"/></g></g></g><g><g><g><path d="m100.176 429.097 2.013 25.886c2.503 32.18 29.347 57.017 61.625 57.017h184.373c32.278 0 59.122-24.837 61.625-57.018l2.013-25.886h-311.649z" fill="#7ec66a"/></g></g></g><g><g><g><path d="m102.189 454.982c2.503 32.181 29.347 57.018 61.625 57.018h56.733c-32.278 0-59.122-24.837-61.625-57.018l-2.013-25.886h-56.733z" fill="#67b758"/></g></g></g><g><g><g><g><path d="m191.667 51.209c-4.142 0-7.5-3.358-7.5-7.5v-12.362c0-4.142 3.358-7.5 7.5-7.5s7.5 3.358 7.5 7.5v12.362c0 4.142-3.358 7.5-7.5 7.5z" fill="#495560"/></g></g></g><g><g><g><path d="m320.333 51.209c-4.142 0-7.5-3.358-7.5-7.5v-12.362c0-4.142 3.358-7.5 7.5-7.5s7.5 3.358 7.5 7.5v12.362c0 4.142-3.357 7.5-7.5 7.5z" fill="#495560"/></g></g></g><g><g><g><path d="m256 58.568c-8.668 0-16.911-3.754-22.615-10.3-2.721-3.123-2.396-7.86.727-10.582s7.86-2.396 10.582.727c2.854 3.275 6.976 5.154 11.307 5.154s8.452-1.879 11.308-5.155c2.721-3.123 7.458-3.448 10.582-.726 3.123 2.721 3.448 7.459.726 10.582-5.706 6.546-13.949 10.3-22.617 10.3z" fill="#495560"/></g></g></g></g><g fill="#fff"><path d="m267.81 247.122 12.35 21.391-6.652-2.898c-3.798-1.657-8.217.083-9.871 3.88-1.655 3.797.083 8.217 3.88 9.871l27.528 11.994c.958.417 1.978.625 2.995.625 1.3 0 2.595-.337 3.75-1.005 2.061-1.19 3.435-3.287 3.703-5.652l3.377-29.837c.466-4.116-2.493-7.83-6.609-8.296-4.114-.466-7.83 2.493-8.296 6.609l-.816 7.208-12.35-21.39c-5.08-8.798-14.178-14.051-24.338-14.052-10.159 0-19.258 5.253-24.338 14.052l-13.363 23.147c-2.071 3.587-.842 8.174 2.745 10.245 3.586 2.071 8.174.841 10.245-2.745l13.363-23.147c2.369-4.103 6.611-6.552 11.349-6.552 4.737.001 8.979 2.45 11.348 6.552z"/><path d="m332.379 328.96-13.363-23.146c-2.071-3.587-6.659-4.816-10.245-2.745-3.587 2.071-4.816 6.658-2.745 10.245l13.363 23.146c2.369 4.103 2.369 9.001 0 13.104-2.368 4.103-6.611 6.552-11.348 6.552h-24.699l5.835-4.311c3.332-2.461 4.037-7.157 1.576-10.489-2.461-3.333-7.158-4.037-10.489-1.576l-24.152 17.843c-1.914 1.414-3.043 3.652-3.043 6.032s1.129 4.618 3.043 6.032l24.152 17.843c1.341.991 2.902 1.468 4.451 1.468 2.298 0 4.567-1.053 6.038-3.044 2.461-3.332 1.756-8.027-1.576-10.489l-5.835-4.311h24.699c10.16 0 19.259-5.253 24.339-14.052 5.079-8.797 5.079-19.303-.001-28.102z"/><path d="m231.687 356.115h-26.727c-4.737 0-8.98-2.449-11.348-6.552-2.369-4.103-2.369-9.001 0-13.104l12.35-21.39.816 7.209c.434 3.83 3.679 6.658 7.443 6.657.282 0 .566-.016.853-.048 4.116-.466 7.075-4.18 6.609-8.296l-3.377-29.838c-.268-2.365-1.642-4.462-3.703-5.652-2.06-1.189-4.563-1.331-6.746-.38l-27.529 11.995c-3.797 1.654-5.535 6.074-3.88 9.871 1.655 3.798 6.076 5.536 9.871 3.88l6.652-2.898-12.35 21.391c-5.08 8.799-5.08 19.305 0 28.104s14.179 14.052 24.339 14.052h26.727c4.142 0 7.5-3.358 7.5-7.5s-3.358-7.501-7.5-7.501z"/></g></g></svg>